<?xml version="1.0" encoding="utf-8"?>
<!-- Generator: Adobe Illustrator 27.0.1, SVG Export Plug-In . SVG Version: 6.00 Build 0)  -->
<svg version="1.1" id="Layer_1" xmlns="http://www.w3.org/2000/svg" xmlns:xlink="http://www.w3.org/1999/xlink" x="0px" y="0px"
	 viewBox="0 0 96 96" style="enable-background:new 0 0 96 96;" xml:space="preserve">
<style type="text/css">
	.st0{fill:#6060F0;}
	.st1{fill:#FFFFFF;}
</style>
<rect class="st0" width="96" height="96"/>
<g>
	<path class="st1" d="M24.1,68.1c-7.8,0-10-2-10-4.8c0-2.3,1.5-3.4,4-4v-0.2c-1.8-0.5-2.9-1.4-2.9-3.2c0-2,1.5-2.8,3.7-3.4v-0.2
		c-2.4-1.2-3.9-3.3-3.9-6.4c0-4.8,3.6-7.4,9-7.4c1.3,0,2.6,0.2,3.6,0.4v-1.1c0-1.6,1.2-2.8,3.2-2.8h3.6v4.3h-5v0.4
		c2.2,1.2,3.6,3.2,3.6,6.2c0,4.8-3.6,7.4-9,7.4c-1.2,0-2.4-0.1-3.4-0.4c-0.6,0.3-1,0.8-1,1.5c0,1.3,1.4,1.4,3,1.4h4.7
		c5.9,0,8.2,2.5,8.2,6C35.5,66.1,31.9,68.1,24.1,68.1z M26.8,60.5h-7.1c-0.5,0.4-0.8,1-0.8,1.7c0,1.3,1,2.2,3.6,2.2H26
		c2.7,0,3.9-0.8,3.9-2.2C29.9,61.1,29.2,60.5,26.8,60.5z M27.4,46.4v-1c0-1.8-1.1-3.1-3.4-3.1c-2.3,0-3.4,1.3-3.4,3.1v1
		c0,1.8,1,3.1,3.4,3.1C26.3,49.5,27.4,48.2,27.4,46.4z"/>
	<path class="st1" d="M39.9,55.1h6.6V43.6h-6.6V39h12.5v16h6.1v4.6H39.9V55.1z M45.9,33.6v-1.2c0-1.6,0.9-2.8,3.6-2.8
		s3.6,1.2,3.6,2.8v1.2c0,1.6-0.9,2.8-3.6,2.8S45.9,35.1,45.9,33.6z"/>
	<path class="st1" d="M73.8,59.7c-4.3,0-6.3-2.5-6.3-6V43.6h-5.6V39h3.6c1.8,0,2.4-0.6,2.4-2.4v-4.8h5.4V39h8v4.6h-8v11.4h8v4.6
		H73.8z"/>
</g>
</svg>
