<?xml version="1.0" encoding="utf-8"?>
<!-- Generator: Adobe Illustrator 27.0.1, SVG Export Plug-In . SVG Version: 6.00 Build 0)  -->
<svg version="1.1" id="Layer_1" xmlns="http://www.w3.org/2000/svg" xmlns:xlink="http://www.w3.org/1999/xlink" x="0px" y="0px"
	 viewBox="0 0 96 96" style="enable-background:new 0 0 96 96;" xml:space="preserve">
<style type="text/css">
	.st0{fill:#6060F0;}
	.st1{fill:#FFFFFF;}
</style>
<rect class="st0" width="96" height="96"/>
<g>
	<path class="st1" d="M20.6,28.9v-1.6c0-3,1.9-5.3,6.2-5.3s6.2,2.2,6.2,5.3v1.6c0,3-1.9,5.3-6.2,5.3S20.6,31.9,20.6,28.9z
		 M21.4,38.2h10.7V76H21.4V38.2z"/>
	<path class="st1" d="M42,76V38.2h10.7v6.4h0.4c1.4-4,4.5-7.3,10.5-7.3c7.7,0,11.8,5.5,11.8,15V76H64.8V53.1c0-4.8-1.4-7.2-5.3-7.2
		c-3.5,0-6.8,1.8-6.8,5.5V76H42z"/>
</g>
</svg>
