<?xml version="1.0" encoding="utf-8"?>
<!-- Generator: Adobe Illustrator 27.0.1, SVG Export Plug-In . SVG Version: 6.00 Build 0)  -->
<svg version="1.1" id="Layer_1" xmlns="http://www.w3.org/2000/svg" xmlns:xlink="http://www.w3.org/1999/xlink" x="0px" y="0px"
	 viewBox="0 0 96 96" style="enable-background:new 0 0 96 96;" xml:space="preserve">
<style type="text/css">
	.st0{fill:#404040;}
	.st1{fill:#6060F0;}
</style>
<rect class="st0" width="96" height="96"/>
<g>
	<path class="st1" d="M10,16.3l-0.8-1.7h0v5.6H7.5v-8.4h2l2.3,4l0.8,1.7h0v-5.6h1.7v8.4h-2L10,16.3z"/>
	<path class="st1" d="M15.7,17.1c0-2,1.1-3.3,3-3.3s3,1.3,3,3.3s-1.1,3.3-3,3.3S15.7,19.1,15.7,17.1z M19.7,17.7v-1.3
		c0-0.8-0.4-1.2-1.1-1.2s-1.1,0.5-1.1,1.2v1.3c0,0.8,0.4,1.2,1.1,1.2S19.7,18.5,19.7,17.7z"/>
	<path class="st1" d="M25.7,13.9h1.8V15h0.1c0.2-0.7,0.9-1.2,1.7-1.2c1.6,0,2.4,1.2,2.4,3.3s-0.8,3.3-2.4,3.3
		c-0.8,0-1.5-0.5-1.7-1.2h-0.1v3.5h-1.8V13.9z M29.8,17.6v-1.1c0-0.8-0.5-1.3-1.2-1.3s-1.2,0.3-1.2,0.9V18c0,0.6,0.5,0.9,1.2,0.9
		S29.8,18.4,29.8,17.6z"/>
	<path class="st1" d="M32.9,20.2v-6.3h1.8v1.4h0.1c0.1-0.7,0.6-1.4,1.6-1.4h0.3v1.7h-0.4c-1,0-1.5,0.2-1.5,1v3.7H32.9z"/>
	<path class="st1" d="M37.3,17.1c0-2,1.1-3.3,3-3.3c2.1,0,2.9,1.5,2.9,3.2v0.5h-4v0.1c0,0.8,0.4,1.4,1.4,1.4c0.7,0,1.2-0.3,1.5-0.8
		l0.9,1.1c-0.6,0.6-1.5,1-2.6,1C38.4,20.4,37.3,19.1,37.3,17.1z M39.2,16.4L39.2,16.4l2.2,0.1v-0.1c0-0.8-0.3-1.3-1.1-1.3
		S39.2,15.6,39.2,16.4z"/>
	<path class="st1" d="M45.7,20.2l-2.1-6.3h1.8l0.8,2.5l0.6,2.3h0.1l0.6-2.3l0.8-2.5h1.7l-2.1,6.3H45.7z"/>
	<path class="st1" d="M50.7,12.4v-0.3c0-0.5,0.3-0.9,1-0.9s1,0.4,1,0.9v0.3c0,0.5-0.3,0.9-1,0.9S50.7,12.9,50.7,12.4z M50.8,13.9
		h1.8v6.3h-1.8V13.9z"/>
	<path class="st1" d="M53.9,17.1c0-2,1.1-3.3,3-3.3c2.1,0,2.9,1.5,2.9,3.2v0.5h-4v0.1c0,0.8,0.4,1.4,1.4,1.4c0.7,0,1.2-0.3,1.5-0.8
		l0.9,1.1c-0.6,0.6-1.5,1-2.6,1C54.9,20.4,53.9,19.1,53.9,17.1z M55.7,16.4L55.7,16.4l2.2,0.1v-0.1c0-0.8-0.3-1.3-1.1-1.3
		C56.1,15.1,55.7,15.6,55.7,16.4z"/>
	<path class="st1" d="M60.3,13.9H62l0.6,2.5l0.4,1.9h0l0.5-1.9l0.7-2.5H66l0.7,2.5l0.5,1.9h0l0.4-1.9l0.6-2.5H70l-1.7,6.3h-1.9
		l-0.8-2.7l-0.4-1.6h0l-0.4,1.6l-0.8,2.7h-1.8L60.3,13.9z"/>
	<path class="st1" d="M70.5,19.4v-0.2c0-0.6,0.3-1,1.1-1c0.7,0,1.1,0.4,1.1,1v0.2c0,0.6-0.3,1-1.1,1C70.9,20.4,70.5,19.9,70.5,19.4z
		"/>
</g>
</svg>
