<?xml version="1.0" encoding="utf-8"?>
<!-- Generator: Adobe Illustrator 27.0.1, SVG Export Plug-In . SVG Version: 6.00 Build 0)  -->
<svg version="1.1" id="Layer_1" xmlns="http://www.w3.org/2000/svg" xmlns:xlink="http://www.w3.org/1999/xlink" x="0px" y="0px"
	 viewBox="0 0 352 288" style="enable-background:new 0 0 352 288;" xml:space="preserve">
<style type="text/css">
	.st0{fill:#F0F040;}
</style>
<rect x="0" y="0" class="st0" width="352" height="288"/>
<g>
	<path d="M96.4,75.1h-0.3l-4.9,9.8l-13.1,23.7L65.4,84.9l-5.1-10.6H60V119H46.3V52h15.5l16.4,31.4h0.2L94.6,52h15.6v67H96.4V75.1z"
		/>
	<path d="M121.7,112.3c0-1.5,0.5-3.9,0.9-5.4l7.3-29.3H122l1.4-5.8l22.8-4.3l-11,44.2l1.7,0.8l8.6-10.9l3.5,2l-5.4,8.2
		c-4.5,6.8-9.1,8.4-12.9,8.4C123.9,120.2,121.7,116,121.7,112.3z M150.8,51.6c0,0.8-0.1,1.7-0.3,2.5c-1,4-4.5,6.5-8.9,6.5
		c-4.7,0-7.3-2.8-7.3-6.1c0-0.8,0.1-1.7,0.3-2.5c1-4,4.5-6.5,8.9-6.5C148.3,45.5,150.8,48.3,150.8,51.6z"/>
	<path d="M155.1,93.8c0-16.1,8.4-26.3,23.5-26.3c10.2,0,17.2,4.9,20.2,13.2l-11.5,5c-0.9-3.8-3.6-6.9-8.6-6.9
		c-5.8,0-8.7,4.1-8.7,10.5v9.4c0,6.3,3,10.4,8.7,10.4c5.7,0,8-3.5,9.4-7.5l11,4.8c-3.4,9.6-10.6,13.9-20.4,13.9
		C163.4,120.2,155.1,109.9,155.1,93.8z"/>
	<path d="M245.1,119c-5.1,0-8.7-3.5-9.6-8.8h-0.6c-1.5,6.5-7.1,10-14.8,10c-10.1,0-15.6-6-15.6-14.7c0-10.7,8.3-15.7,21.6-15.7h8
		v-3.2c0-4.9-2.4-8-8.4-8c-5.7,0-8.6,2.9-10.8,6l-8.4-7.5c4-6,9.8-9.6,20.4-9.6c14.2,0,21.5,6.5,21.5,18.4V108h4.7v11H245.1z
		 M234.1,103.8v-6h-6.9c-5.5,0-8.4,2-8.4,5.7v1.4c0,3.6,2.4,5.4,6.6,5.4C230.1,110.3,234.1,108.4,234.1,103.8z"/>
	<path d="M262.5,48h14.2v29.2h0.6c1.8-5.3,6-9.7,14-9.7c10.3,0,15.7,7.3,15.7,20V119h-14.2V88.6c0-6.4-1.8-9.6-7-9.6
		c-4.6,0-9.1,2.4-9.1,7.4V119h-14.2V48z"/>
	<path d="M53.5,167.2H86c11,0,17.7,6.8,17.7,17.2c0,10.3-5.7,14.1-12.5,14.4v0.6c6.3,0,15.1,4.2,15.1,15.7
		c0,10.6-7.4,19.1-17.3,19.1H53.5V167.2z M68.1,194.7h14.5c3.8,0,6.1-2.3,6.1-6.1v-2.9c0-3.8-2.3-6.1-6.1-6.1H68.1V194.7z
		 M68.1,221.9h16.8c3.8,0,6.2-2.2,6.2-6v-3.3c0-3.8-2.4-6-6.2-6H68.1V221.9z"/>
	<path d="M154,234.2c-5.1,0-8.7-3.5-9.6-8.8h-0.6c-1.5,6.5-7.1,10-14.8,10c-10.1,0-15.6-6-15.6-14.7c0-10.7,8.3-15.7,21.6-15.7h8
		v-3.2c0-4.9-2.4-8-8.4-8c-5.7,0-8.6,2.9-10.8,6l-8.4-7.5c4-6,9.8-9.6,20.4-9.6c14.2,0,21.5,6.5,21.5,18.4v22.1h4.7v11H154z
		 M143,219v-6h-6.9c-5.5,0-8.4,2-8.4,5.7v1.4c0,3.6,2.4,5.4,6.6,5.4C139,225.5,143,223.6,143,219z"/>
	<path d="M171.4,163.2h14.2v41.9h0.6l6.2-9.3l10.1-12h15.7l-16.8,19.3l18.7,31.1h-16.9l-11.3-21.3l-6.3,7.1v14.2h-14.2V163.2z"/>
	<path d="M222.9,218.5c0-15.2,8.6-35.7,28.6-35.7c8.4,0,14.9,3.1,14.9,10.5c0,6-5,14.9-27.7,16.2c-1,4.4-1.3,8.1-1.3,10.8
		c0,5.5,2.1,7.6,5.9,7.6c5.9,0,10.7-5.1,15-13.7l3.7,1.6c-5.8,12.3-12,19.7-23.9,19.7C227.7,235.4,222.9,229,222.9,218.5z
		 M254.9,192.2c0-2.7-1.3-4.3-4-4.3c-5.3,0-7.6,4.4-11.2,17.7C251.6,203.8,254.9,198.2,254.9,192.2z"/>
	<path d="M273.7,234.2v-50.4h14.2v10.9h0.5c1.2-5.6,5-10.9,12.9-10.9h2.5v13.2h-3.6c-8.3,0-12.3,1.8-12.3,7.7v29.5H273.7z"/>
</g>
</svg>
