<?xml version="1.0" encoding="utf-8"?>
<!-- Generator: Adobe Illustrator 27.0.1, SVG Export Plug-In . SVG Version: 6.00 Build 0)  -->
<svg version="1.1" id="Layer_1" xmlns="http://www.w3.org/2000/svg" xmlns:xlink="http://www.w3.org/1999/xlink" x="0px" y="0px"
	 viewBox="0 0 320 48" style="enable-background:new 0 0 320 48;" xml:space="preserve">
<g>
	<path d="M25,10.4h-0.2L12.6,30.3L7.1,10.4H6.9L1.7,41.9H0L5.7,7.8H8l5.1,18.6h0.2L24.6,7.8H27l-5.7,34.1h-1.7L25,10.4z"/>
	<path d="M37.3,41c0-0.3,0-0.7,0.2-1.8l4.1-21h-9.9l0.2-1.5h11.6L39,40.6l0.4,0.2l12.2-8.6l0.9,1.1l-10,7.2c-1.9,1.3-2.6,2-3.6,2
		C37.9,42.5,37.3,41.9,37.3,41z M42.7,7.7c0-0.2,0-0.5,0.1-0.9c0.2-0.8,0.7-1.4,1.9-1.4c1.3,0,1.7,0.5,1.7,1.1c0,0.2,0,0.5-0.1,0.9
		c-0.2,0.8-0.7,1.4-1.9,1.4C43.1,8.9,42.7,8.3,42.7,7.7z"/>
	<path d="M60.7,32.1c0-10.1,5.3-15.9,12.4-15.9c4.3,0,7.2,2.4,8,5.7l-1.5,0.5c-0.9-3.1-3.3-4.7-6.6-4.7c-5.3,0-9.1,3.7-10.1,9.6
		l-0.4,2.5c-0.1,1-0.2,1.6-0.2,2.5c0,5,2.4,8.7,7.5,8.7c3.8,0,6.5-2.2,9.4-6.6l1.3,0.7c-2.8,4.5-6,7.5-10.8,7.5
		C63.7,42.5,60.7,38.2,60.7,32.1z"/>
	<path d="M105.8,41.9l0.9-5.7h-0.1c-1.9,3.8-4.5,6.3-9,6.3c-5.5,0-8.3-3.9-8.3-9.7c0-9,4.3-16.7,11.9-16.7c4.2,0,7,2.1,8,5.1h0.2
		l0.7-4.5h1.7l-4.2,25.2H105.8z M103.5,38.8c1.8-1.6,3.5-4.1,4-7.2l1.2-6.9c0.6-3.4-1.7-7-7.3-7c-5.4,0-8.8,4.4-9.8,10.2l-0.4,2.7
		c-0.1,0.8-0.2,1.6-0.2,2.4c0,4.5,2.1,8.1,7,8.1C100,41,101.9,40.4,103.5,38.8z"/>
	<path d="M125.2,5.8h1.7l-2.8,16.6h0.2c1.9-3.9,4.5-6.2,8.7-6.2c4.3,0,6.7,2.6,6.7,7c0,0.9-0.1,1.9-0.2,2.9l-2.7,15.9h-1.7l2.6-15.8
		c0.1-0.9,0.2-2,0.2-2.8c0-3.8-1.9-5.7-5.5-5.7c-2.2,0-4.5,0.9-6.2,3.1c-0.9,1.1-2.5,3.4-3,6.2l-2.5,14.9h-1.7L125.2,5.8z"/>
	<path d="M182.2,7.8h10.2c5,0,7.7,2.7,7.7,7.4c0,4.4-2,8-6.2,9.1v0.1c3.2,0.7,5,3.2,5,6.8c0,6.6-3.8,10.6-10.1,10.6h-12.3L182.2,7.8
		z M188.6,40.4c4.7,0,7.5-2.4,8.1-6.1l0.3-1.7c0.1-0.6,0.1-1,0.1-1.6c0-3.2-2-5.7-6.1-5.7h-10l-2.5,15H188.6z M190.5,23.8
		c4.3,0,6.9-2.6,7.4-6l0.2-1.5c0.1-0.7,0.1-1,0.1-1.4c0-3.3-1.9-5.5-6.1-5.5h-8.5l-2.4,14.4H190.5z"/>
	<path d="M222.9,41.9l0.9-5.7h-0.1c-1.9,3.8-4.5,6.3-9,6.3c-5.5,0-8.3-3.9-8.3-9.7c0-9,4.3-16.7,11.9-16.7c4.2,0,7,2.1,8,5.1h0.2
		l0.7-4.5h1.7l-4.2,25.2H222.9z M220.7,38.8c1.8-1.6,3.5-4.1,4-7.2l1.2-6.9c0.6-3.4-1.7-7-7.3-7c-5.4,0-8.8,4.4-9.8,10.2l-0.4,2.7
		c-0.1,0.8-0.2,1.6-0.2,2.4c0,4.5,2.1,8.1,7,8.1C217.1,41,219,40.4,220.7,38.8z"/>
	<path d="M242,5.8h1.7L241,22.4h0.1c2.2-4.3,5.6-6.2,9.5-6.2c4.4,0,6.6,2.4,6.6,5.8c0,3.2-2.1,7-11.6,9.2l5.4,9.7l0.3,0l8.1-7.5
		l0.9,1l-6.1,5.7c-1.8,1.7-2.4,2.3-3.3,2.3c-0.8,0-1.3-0.5-1.9-1.7l-5.5-10.2c9.3-2.2,11.9-5.2,11.9-8.5c0-2.7-1.5-4.5-5.3-4.5
		c-2.4,0-4.5,0.8-6.2,2.4c-2,1.9-3.4,4.4-3.8,7l-2.5,14.9H236L242,5.8z"/>
	<path d="M265.6,31.6c0-8.5,5.3-15.5,12.9-15.5c4.9,0,8.1,2.3,8.1,6.2c0,3.3-2.1,8.1-19.3,8.4c0,0.5,0,1.2,0,1.3c0,4.9,2,9,7.9,9
		c4.1,0,7-2.4,9.3-6.7l1.3,0.7c-2.7,5-6.1,7.4-10.7,7.4C268.9,42.5,265.6,38.7,265.6,31.6z M267.6,28.2l-0.2,1.3
		c14.7-0.3,17.4-3.8,17.4-7.1c0-2.7-1.8-4.8-6.5-4.8C273.2,17.6,268.7,21.5,267.6,28.2z"/>
	<path d="M301,41.9l4-23.7h-8.3l0.2-1.5h10l-0.8,4.8h0.1c1.9-3,4-4.8,8.5-4.8h5.3l-0.2,1.6h-5.4c-2.1,0-4,0.6-5.6,1.8
		c-1.5,1.1-3,2.9-3.4,5.4l-2.7,16.5H301z"/>
</g>
</svg>
